<svg xmlns="http://www.w3.org/2000/svg" viewBox="0 0 1600 1000" role="img" aria-label="SmartSphere AI agent dashboard preview">
  <defs>
    <linearGradient id="bg" x1="0" x2="1" y1="0" y2="1">
      <stop offset="0" stop-color="#F4F7FB"/>
      <stop offset="1" stop-color="#E6FBF5"/>
    </linearGradient>
  </defs>
  <rect width="1600" height="1000" fill="url(#bg)"/>
  <rect x="80" y="80" width="1440" height="840" rx="24" fill="#FFFFFF" stroke="#E2E8F0"/>
  <rect x="80" y="80" width="1440" height="64" rx="24" fill="#0A2540"/>
  <circle cx="120" cy="112" r="8" fill="#00D4AA"/>
  <text x="148" y="118" font-family="Inter, sans-serif" font-size="18" font-weight="600" fill="#FFFFFF">SmartSphere · Live Agent</text>
  <rect x="120" y="200" width="640" height="280" rx="16" fill="#F8FAFC" stroke="#E2E8F0"/>
  <rect x="160" y="240" width="240" height="14" rx="4" fill="#0A2540"/>
  <rect x="160" y="270" width="540" height="10" rx="4" fill="#C2D1E3"/>
  <rect x="160" y="290" width="500" height="10" rx="4" fill="#C2D1E3"/>
  <rect x="160" y="430" width="160" height="36" rx="8" fill="#00D4AA"/>
  <rect x="800" y="200" width="680" height="640" rx="16" fill="#0A2540"/>
  <text x="840" y="260" font-family="Inter, sans-serif" font-size="18" font-weight="600" fill="#FFFFFF">Conversation</text>
  <rect x="840" y="300" width="380" height="60" rx="12" fill="#1B3F66"/>
  <rect x="860" y="320" width="240" height="10" rx="4" fill="#9BB3CE"/>
  <rect x="860" y="338" width="180" height="10" rx="4" fill="#9BB3CE"/>
  <rect x="1060" y="380" width="380" height="60" rx="12" fill="#00D4AA"/>
  <rect x="1080" y="400" width="220" height="10" rx="4" fill="#0A2540"/>
  <rect x="1080" y="418" width="160" height="10" rx="4" fill="#0A2540"/>
  <rect x="840" y="460" width="380" height="60" rx="12" fill="#1B3F66"/>
  <rect x="860" y="480" width="280" height="10" rx="4" fill="#9BB3CE"/>
  <rect x="860" y="498" width="200" height="10" rx="4" fill="#9BB3CE"/>
  <rect x="120" y="520" width="640" height="320" rx="16" fill="#F8FAFC" stroke="#E2E8F0"/>
  <rect x="160" y="560" width="180" height="14" rx="4" fill="#0A2540"/>
  <circle cx="280" cy="700" r="100" fill="none" stroke="#00D4AA" stroke-width="20"/>
  <text x="280" y="710" text-anchor="middle" font-family="Inter, sans-serif" font-size="32" font-weight="700" fill="#0A2540">94%</text>
  <text x="440" y="640" font-family="Inter, sans-serif" font-size="14" fill="#5C7FA3">Resolution rate</text>
  <text x="440" y="680" font-family="Inter, sans-serif" font-size="14" fill="#5C7FA3">Avg handle time · 1m 12s</text>
  <text x="440" y="720" font-family="Inter, sans-serif" font-size="14" fill="#5C7FA3">CSAT · 4.7 / 5</text>
</svg>
